<svg version="1.1" xmlns="http://www.w3.org/2000/svg" viewBox="-154.06472695890466 -45.89294740635691 203.0496946738936 98.01206491815859" fill="none" stroke="black" stroke-width="0.6%" vector-effect="non-scaling-stroke">
    <path d="M 20.95048 -3.09946 L -68.55697 -17.277 A 25 3.99675 0 0 1 -75.96142 -20.1162 A 25 3.99675 0 0 1 -69.42812 -22.81029 L 37.41914 -34.88939 L 39.86364 -35.20434 A 25 3.99675 180 0 0 47.98497 -38.15268 A 25 3.99675 180 0 0 26.90254 -42.10005" />
    <path d="M -63.96698 42.08515 L -63.96698 10.49674" />
    <path d="M -71.37143 39.24595 A 25 3.99675 180 0 0 -63.96698 42.08515 L -14.24062 49.96156 L -14.24062 18.37314" />
    <path d="M 28.35493 47.12236 A 25 3.99675 0 0 1 -14.24062 49.96156" />
    <path d="M -145.66027 -2.44308 L -63.96698 10.49674" />
    <path d="M -145.66027 -2.44308 L -145.66027 -18.23728" />
    <path d="M -14.24062 2.57894 L -145.66027 -18.23728" />
    <path d="M -14.24062 18.37315 L -14.24062 2.57894" />
    <path d="M -14.24062 18.37315 A 25 3.99675 0 0 1 -14.24062 18.37314" />
    <path d="M 20.95048 -3.09946 A 25 3.99675 0 0 1 28.35493 -0.26026 A 25 3.99675 0 0 1 -14.24062 2.57894" />
    <path d="M 10.90254 -41.65166 A 25 3.99675 180 0 0 9.86096 -41.55442 L 8.55079 -41.41596 L -5.75685 -39.79848" />
    <path d="M -21.75685 -37.98968 L -142.4989 -24.33977 A 25 3.99675 180 0 0 -153.06473 -21.07648 A 25 3.99675 180 0 0 -145.66027 -18.23728" />
    <path d="M 26.90254 -37.69116 A 8 1.27896 0 1 1 10.90254 -37.69116" />
    <path d="M -5.75685 -33.99901 A 8 1.27896 0 1 1 -21.75685 -33.99901" />
    <path d="M -69.42812 -17.42211 L -69.42812 -22.81029" />
    <path d="M -145.66027 -2.44308 A 25 3.99675 0 0 1 -153.06473 -5.28228" />
    <path d="M 39.86364 -19.41013 A 25 3.99675 180 0 0 47.98497 -22.35847" />
    <path d="M 37.41914 -19.09518 L 39.86364 -19.41013 L 39.86364 -35.20434" />
    <path d="M 37.41914 -19.09518 L -31.11871 -11.34696" />
    <path d="M 37.41914 -19.09518 L 37.41914 -34.88939" />
    <path d="M 14.28361 -44.65824 A 8 1.27896 0 0 1 26.90254 -43.61399 L 26.90254 -37.69116" />
    <path d="M 26.90254 -43.61399 A 8 1.27896 0 1 1 10.90254 -43.61399 L 10.90254 -37.69116" />
    <path d="M 10.90254 -43.61399 A 8 1.27896 0 0 1 14.28361 -44.65824" />
    <path d="M -18.37579 -40.96609 A 8 1.27896 0 0 1 -5.75685 -39.92184 L -5.75685 -33.99901" />
    <path d="M -5.75685 -39.92184 A 8 1.27896 0 1 1 -21.75685 -39.92184 L -21.75685 -33.99901" />
    <path d="M -21.75685 -39.92184 A 8 1.27896 0 0 1 -18.37579 -40.96609" />
    <path d="M -11.44738 -9.78557 A 4 0.63948 180 0 0 -9.75685 -10.30769 L -9.75685 -13.76192" />
    <path d="M -17.75685 -10.30769 A 4 0.63948 180 0 0 -11.44738 -9.78557" />
    <path d="M 21.21201 -13.47772 A 4 0.63948 180 0 0 22.90254 -13.99984 L 22.90254 -17.45407" />
    <path d="M 14.90254 -13.99984 A 4 0.63948 180 0 0 21.21201 -13.47772" />
    <path d="M -15.65824 30.46609 L -20.27227 26.03349 L -23.08755 26.48776 L -27.70159 29.45869 L -27.70159 36.86222 L -23.08755 41.29483 L -18.47352 38.3239 L -18.47352 30.92036 L -23.08755 26.48776" />
    <path d="M -20.27227 40.84056 L -15.65824 37.86963 L -18.47352 38.3239" />
    <path d="M -15.65824 37.86963 L -15.65824 30.46609 L -18.47352 30.92036" />
    <path d="M -40.52141 26.52789 L -45.13544 22.09528 L -47.95073 22.54955 L -52.56476 25.52048 L -52.56476 32.92402 L -47.95073 37.35662 L -43.3367 34.3857 L -43.3367 26.98216 L -47.95073 22.54955" />
    <path d="M -45.13544 36.90235 L -40.52141 33.93142 L -43.3367 34.3857" />
    <path d="M -40.52141 33.93142 L -40.52141 26.52789 L -43.3367 26.98216" />
    <path d="M -20.27227 40.84056 L -23.08755 41.29483" />
    <path d="M -45.13544 36.90235 L -47.95073 37.35662" />
    <path d="M -71.37143 9.32391 L -71.37143 39.24595" />
    <path d="M 28.35493 -0.26026 L 28.35493 47.12236" />
    <path d="M 47.98497 -38.15268 L 47.98497 -22.35847" />
    <path d="M -153.06473 -21.07648 L -153.06473 -5.28228" />
    <path d="M -17.75685 -10.30769 L -17.75685 -12.85752" />
    <path d="M 14.90254 -13.99984 L 14.90254 -16.54967" />
</svg>