<svg version="1.1" xmlns="http://www.w3.org/2000/svg" viewBox="-156.13968589662 -44.18505422955288 214.35368913620107 96.33851202648088" fill="none" stroke="black" stroke-width="0.6%" vector-effect="non-scaling-stroke">
    <path d="M 22.54272 -2.90267 L -71.32682 -18.40219 A 25 3.93749 0 0 1 -78.23676 -21.11991 A 25 3.93749 0 0 1 -76.57801 -22.53026 L 44.19941 -32.92199 L 46.85468 -33.18583 A 25 3.93749 180 0 0 57.214 -36.37748 A 25 3.93749 180 0 0 35.82606 -40.27366" />
    <path d="M -61.9526 41.956 L -61.9526 10.35539" />
    <path d="M -68.86254 39.23827 A 25 3.93749 180 0 0 -61.9526 41.956 L -13.6374 49.93369 L -13.6374 18.33308" />
    <path d="M 29.45266 47.21597 A 25 3.93749 0 0 1 -13.6374 49.93369" />
    <path d="M -148.22974 -3.89049 L -61.9526 10.35539" />
    <path d="M -148.22974 -3.89049 L -148.22974 -19.6908" />
    <path d="M -13.63739 2.53278 L -148.22974 -19.6908" />
    <path d="M -13.63739 18.33308 L -13.63739 2.53278" />
    <path d="M -13.63739 18.33308 A 25 3.93749 0 0 1 -13.6374 18.33308" />
    <path d="M 22.54272 -2.90267 A 25 3.93749 0 0 1 29.45266 -0.18495 A 25 3.93749 0 0 1 -13.63739 2.53278" />
    <path d="M 19.82606 -39.79834 L 0.72256 -38.15467" />
    <path d="M -15.27744 -36.77802 L -142.1251 -25.86401 A 25 3.93749 180 0 0 -155.13968 -22.40852 A 25 3.93749 180 0 0 -148.22974 -19.6908" />
    <path d="M 35.82606 -35.99994 A 8 1.26 0 0 1 19.82606 -35.99994" />
    <path d="M 0.72256 -32.97963 A 8 1.26 0 0 1 -15.27744 -32.97963" />
    <path d="M -76.57801 -19.70956 L -76.57801 -22.53026" />
    <path d="M -148.22974 -3.89049 A 25 3.93749 0 0 1 -155.13968 -6.60822" />
    <path d="M 46.85468 -17.38552 A 25 3.93749 180 0 0 57.214 -20.57718" />
    <path d="M 44.19941 -17.12169 L 46.85468 -17.38552 L 46.85468 -33.18583" />
    <path d="M 44.19941 -17.12169 L -26.65209 -11.0256" />
    <path d="M 44.19941 -17.12169 L 44.19941 -32.92199" />
    <path d="M 23.99073 -43.03081 A 8 1.26 0 0 1 35.82606 -41.92506 L 35.82606 -35.99994" />
    <path d="M 35.82606 -41.92506 A 8 1.26 0 0 1 19.82606 -41.92506 L 19.82606 -35.99994" />
    <path d="M 19.82606 -41.92506 A 8 1.26 0 0 1 23.99073 -43.03081" />
    <path d="M -11.11277 -40.0105 A 8 1.26 0 0 1 0.72256 -38.90474 L 0.72256 -32.97963" />
    <path d="M 0.72256 -38.90474 A 8 1.26 0 0 1 -15.27744 -38.90474 L -15.27744 -32.97963" />
    <path d="M -15.27744 -38.90474 A 8 1.26 0 0 1 -11.11277 -40.0105" />
    <path d="M -5.35977 -8.72629 A 4 0.63 180 0 0 -3.27744 -9.27917 L -3.27744 -13.03676" />
    <path d="M -11.27744 -9.27917 A 4 0.63 180 0 0 -5.35977 -8.72629" />
    <path d="M 29.74373 -11.74661 A 4 0.63 180 0 0 31.82606 -12.29949 L 31.82606 -16.05708" />
    <path d="M 23.82606 -12.29949 A 4 0.63 180 0 0 29.74373 -11.74661" />
    <path d="M -15.05454 30.42438 L -19.53763 25.98095 L -22.43204 26.41578 L -26.91513 29.37874 L -26.91513 36.78514 L -22.43204 41.22857 L -17.94895 38.26561 L -17.94895 30.85922 L -22.43204 26.41578" />
    <path d="M -19.53763 40.79373 L -15.05454 37.83078 L -17.94895 38.26561" />
    <path d="M -15.05454 37.83078 L -15.05454 30.42438 L -17.94895 30.85922" />
    <path d="M -39.21214 26.43554 L -43.69523 21.9921 L -46.58964 22.42694 L -51.07273 25.3899 L -51.07273 32.79629 L -46.58964 37.23972 L -42.10655 34.27676 L -42.10655 26.87037 L -46.58964 22.42694" />
    <path d="M -43.69523 36.80489 L -39.21214 33.84193 L -42.10655 34.27676" />
    <path d="M -39.21214 33.84193 L -39.21214 26.43554 L -42.10655 26.87037" />
    <path d="M -19.53763 40.79373 L -22.43204 41.22857" />
    <path d="M -43.69523 36.80489 L -46.58964 37.23972" />
    <path d="M -68.86254 9.21443 L -68.86254 39.23827" />
    <path d="M 29.45266 -0.18495 L 29.45266 47.21597" />
    <path d="M 57.214 -36.37748 L 57.214 -20.57718" />
    <path d="M -155.13968 -22.40852 L -155.13968 -6.60822" />
    <path d="M -11.27744 -9.27917 L -11.27744 -12.34844" />
    <path d="M 23.82606 -12.29949 L 23.82606 -15.36876" />
</svg>