<svg version="1.1" xmlns="http://www.w3.org/2000/svg" viewBox="-147.30222860058888 -46.41662502308944 198.61237256817793 96.40150958590593" fill="none" stroke="black" stroke-width="0.6%" vector-effect="non-scaling-stroke">
    <path d="M -4.77815 -10.28569 L -60.88313 -18.14903 A 25 3.83456 360 0 1 -69.01923 -20.97979 A 25 3.83456 360 0 1 -63.15149 -23.44804 L 40.55696 -35.6894 L 42.9199 -36.00646 A 25 3.83456 180 0 0 50.31014 -38.72828 A 25 3.83456 180 0 0 29.34765 -42.5125" />
    <path d="M -53.27042 40.73854 L -53.27042 9.1172" />
    <path d="M -61.40652 37.90778 A 25 3.83456 180 0 0 -53.27042 40.73854 L -1.59478 47.98109 L -1.59478 16.35975 L -1.59478 0.54907 L 32.13303 -5.11245 L 34.10111 -5.48763 A 25 3.83456 180 0 0 38.67744 -7.69907 A 25 3.83456 180 0 0 -3.68283 -10.45833 L -4.77815 -10.28569" />
    <path d="M 40.26913 45.15033 A 25 3.83456 360 0 1 -1.59478 47.98109" />
    <path d="M -138.16613 -2.78127 L -53.27042 9.1172" />
    <path d="M -138.16613 -2.78127 L -138.16613 -18.59194 L -38.50595 -4.62417 L -40.47403 -4.24899 A 25 3.83456 180 0 0 -45.05036 -2.03755 A 25 3.83456 180 0 0 -2.69009 0.72172 L -1.59478 0.54907" />
    <path d="M 32.13303 10.69823 A 25 3.83456 360 0 1 40.26913 13.52899 A 25 3.83456 360 0 1 -1.59478 16.35975 L 32.13303 10.69823 L 34.10111 10.32304 A 25 3.83456 180 0 0 38.67744 8.1116" />
    <path d="M 13.34765 -42.09536 A 25 3.83456 180 0 0 11.33744 -41.90801 L 10.06332 -41.76717 L -2.35233 -40.30167" />
    <path d="M -18.35233 -38.41309 L -136.54905 -24.46159 A 25 3.83456 180 0 0 -146.30223 -21.4227 L -146.30223 -5.61203" />
    <path d="M -146.30223 -21.4227 A 25 3.83456 180 0 0 -138.16613 -18.59194" />
    <path d="M 29.34765 -38.26056 A 8 1.22706 360 0 1 13.34765 -38.26056" />
    <path d="M -2.35233 -34.51882 A 8 1.22706 360 0 1 -18.35233 -34.51882" />
    <path d="M -63.15149 -18.51154 L -63.15149 -23.44804" />
    <path d="M -138.16613 -2.78127 A 25 3.83456 360 0 1 -146.30223 -5.61203" />
    <path d="M 42.9199 -20.19579 A 25 3.83456 180 0 0 50.31014 -22.91761" />
    <path d="M 40.55696 -19.87873 L 42.9199 -20.19579 L 42.9199 -36.00646" />
    <path d="M 40.55696 -19.87873 L -21.2073 -12.5883" />
    <path d="M 34.10111 10.32304 L 34.10111 -5.48763" />
    <path d="M 32.13303 10.69823 L 32.13303 -5.11245" />
    <path d="M -2.69009 16.53239 L -2.69009 0.72172" />
    <path d="M -45.05036 13.77312 A 25 3.83456 180 0 0 -2.69009 16.53239 L -1.59478 16.35975" />
    <path d="M 40.55696 -19.87873 L 40.55696 -35.6894" />
    <path d="M 16.46866 -45.16201 A 8 1.22706 360 0 1 29.34765 -44.18957 L 29.34765 -38.26056" />
    <path d="M 29.34765 -44.18957 A 8 1.22706 360 0 1 13.34765 -44.18957 L 13.34765 -38.26056" />
    <path d="M 13.34765 -44.18957 A 8 1.22706 360 0 1 16.46866 -45.16201" />
    <path d="M -15.23131 -41.42026 A 8 1.22706 360 0 1 -2.35233 -40.44782 L -2.35233 -34.51882" />
    <path d="M -2.35233 -40.44782 A 8 1.22706 360 0 1 -18.35233 -40.44782 L -18.35233 -34.51882" />
    <path d="M -18.35233 -40.44782 A 8 1.22706 360 0 1 -15.23131 -41.42026" />
    <path d="M -6.69501 -10.55435 A 4 0.61353 180 0 0 -6.35233 -10.80281 L -6.35233 -14.34173" />
    <path d="M 23.78714 -14.05834 A 4 0.61353 180 0 0 25.34765 -14.54456 L 25.34765 -18.08348" />
    <path d="M 17.34765 -14.54456 A 4 0.61353 180 0 0 23.78714 -14.05834" />
    <path d="M -3.01111 28.47406 L -7.80601 24.09641 L -10.50423 24.54933 L -15.29914 27.58293 L -15.29914 34.99418 L -10.50423 39.37183 L -5.70933 36.33823 L -5.70933 28.92698 L -10.50423 24.54933" />
    <path d="M -7.80601 38.91891 L -3.01111 35.88531 L -5.70933 36.33823" />
    <path d="M -3.01111 35.88531 L -3.01111 28.47406 L -5.70933 28.92698" />
    <path d="M -28.84893 24.85278 L -33.64383 20.47513 L -36.34206 20.92806 L -41.13696 23.96166 L -41.13696 31.37291 L -36.34206 35.75056 L -31.54715 32.71696 L -31.54715 25.30571 L -36.34206 20.92806" />
    <path d="M -33.64383 35.29764 L -28.84893 32.26404 L -31.54715 32.71696" />
    <path d="M -28.84893 32.26404 L -28.84893 24.85278 L -31.54715 25.30571" />
    <path d="M -7.80601 38.91891 L -10.50423 39.37183" />
    <path d="M -33.64383 35.29764 L -36.34206 35.75056" />
    <path d="M -61.40652 7.97689 L -61.40652 37.90778" />
    <path d="M 40.26913 13.52899 L 40.26913 45.15033" />
    <path d="M 38.67744 -7.69907 L 38.67744 8.1116" />
    <path d="M -45.05036 -2.03755 L -45.05036 13.77312" />
    <path d="M 50.31014 -38.72828 L 50.31014 -22.91761" />
    <path d="M -14.35233 -11.62755 L -14.35233 -13.39744" />
    <path d="M 17.34765 -14.54456 L 17.34765 -17.13919" />
</svg>