<svg version="1.1" xmlns="http://www.w3.org/2000/svg" viewBox="-155.05844506884128 -52.78660533182931 184.18388851776004 108.60157524585242" fill="none" stroke="black" stroke-width="0.6%" vector-effect="non-scaling-stroke">
    <path d="M -50.09063 47.63967 L -14.36525 53.59907 L -14.36525 0.38843 L -146.54914 -21.66131" />
    <path d="M -50.09063 12.16592 L -50.09063 23.21533" />
    <path d="M -50.09063 35.03302 L -50.09063 47.63967 A 25 4.25897 360 0 1 -57.59993 44.59661" />
    <path d="M -146.54914 -3.92444 L -50.09063 12.16592" />
    <path d="M -146.54914 -3.92444 L -146.54914 -21.66131" />
    <path d="M 28.12544 50.556 A 25 4.25897 360 0 1 -14.36525 53.59907" />
    <path d="M 20.61614 -5.6977 A 25 4.25897 360 0 1 28.12544 -2.65464 A 25 4.25897 360 0 1 -14.36525 0.38843" />
    <path d="M 20.61614 -5.6977 L -75.84237 -21.78806 A 25 4.25897 360 0 1 -83.35168 -24.83113 A 25 4.25897 360 0 1 -76.21437 -27.81082 L 18.23538 -44.24339 L 20.2867 -44.64828 A 25 4.25897 180 0 0 25.3727 -47.22308 A 25 4.25897 180 0 0 2.03755 -51.4726" />
    <path d="M -154.05844 -6.9675 A 25 4.25897 180 0 0 -146.54914 -3.92444" />
    <path d="M 20.2867 -26.9114 A 25 4.25897 180 0 0 25.3727 -29.4862" />
    <path d="M 18.23538 -26.50651 L 20.2867 -26.9114 L 20.2867 -44.64828" />
    <path d="M 18.23538 -26.50651 L -41.6592 -16.08592" />
    <path d="M -146.92113 -27.68408 A 25 4.25897 180 0 0 -154.05844 -24.70438 A 25 4.25897 180 0 0 -146.54914 -21.66131" />
    <path d="M -17.48999 -50.20278 L -146.92113 -27.68408" />
    <path d="M -8.47892 -51.20616 A 25 4.25897 180 0 0 -16.35649 -50.38797 L -17.48999 -50.20278" />
    <path d="M -38.37502 -42.06325 L -36.35776 -40.83264 L -36.35776 -44.77417 L -29.0933 -44.45648 L -23.84609 -45.3694 L -25.86335 -46.60001 L -33.12781 -46.9177 L -38.37502 -46.00478 L -36.35776 -44.77417" />
    <path d="M -36.35776 -40.83264 L -29.0933 -40.51495 L -29.0933 -44.45648" />
    <path d="M -29.0933 -40.51495 L -23.84609 -41.42787 L -23.84609 -45.3694" />
    <path d="M -10.38991 -46.93216 L -8.37265 -45.70155 L -8.37265 -49.64308 L -1.10818 -49.32539 L 4.13902 -50.23831 L 2.12177 -51.46892 L -5.1427 -51.7866 L -10.38991 -50.87368 L -8.37265 -49.64308" />
    <path d="M -8.37265 -45.70155 L -1.10818 -45.38386 L -1.10818 -49.32539" />
    <path d="M -1.10818 -45.38386 L 4.13902 -46.29678 L 4.13902 -50.23831" />
    <path d="M -15.78282 30.1982 L -20.42369 25.72887 L -23.2222 26.21576 L -27.86306 29.1368 L -27.86306 36.52716 L -23.2222 40.99649 L -18.58134 38.07546 L -18.58134 30.68509 L -23.2222 26.21576" />
    <path d="M -20.42369 40.5096 L -15.78282 37.58857 L -18.58134 38.07546" />
    <path d="M -15.78282 37.58857 L -15.78282 30.1982 L -18.58134 30.68509" />
    <path d="M -40.79059 26.02663 L -45.43145 21.5573 L -48.22996 22.04419 L -52.87082 24.96522 L -52.87082 32.35559 L -48.22996 36.82492 L -43.5891 33.90388 L -43.5891 26.51352 L -48.22996 22.04419" />
    <path d="M -45.43145 36.33803 L -40.79059 33.41699 L -43.5891 33.90388" />
    <path d="M -40.79059 33.41699 L -40.79059 26.02663 L -43.5891 26.51352" />
    <path d="M 18.23538 -26.50651 L 18.23538 -44.24339" />
    <path d="M -76.21437 -21.85143 L -76.21437 -27.81082" />
    <path d="M -38.37502 -42.06325 L -38.37502 -46.00478" />
    <path d="M -10.38991 -46.93216 L -10.38991 -50.87368" />
    <path d="M -20.42369 40.5096 L -23.2222 40.99649" />
    <path d="M -45.43145 36.33803 L -48.22996 36.82492" />
    <path d="M 28.12544 -2.65464 L 28.12544 50.556" />
    <path d="M -57.59993 10.91328 L -57.59993 44.59661" />
    <path d="M -154.05844 -24.70438 L -154.05844 -6.9675" />
    <path d="M 25.3727 -47.22308 L 25.3727 -29.4862" />
</svg>