<svg version="1.1" xmlns="http://www.w3.org/2000/svg" viewBox="-149.51853697686985 -73.81030581206566 210.57822941637716 157.53359754603665" fill="none" stroke="black" stroke-width="0.6%" vector-effect="non-scaling-stroke">
    <path d="M -1.84978 -14.45734 L -63.71158 -29.69955 A 25 6.37833 360 0 1 -71.34469 -34.28763 A 25 6.37833 360 0 1 -70.03368 -36.32602 L 47.93513 -54.40961 L 50.51943 -54.86443 A 25 6.37833 180 0 0 60.05969 -59.87699 L 60.05969 -44.40649" />
    <path d="M -50.97002 68.5266 L -50.97002 6.64462" />
    <path d="M -58.60314 63.93851 A 25 6.37833 180 0 0 -50.97002 68.5266 L -0.6174 80.93304 L -0.6174 19.05106 L -0.6174 3.58057 L 34.11638 -5.5956 L 36.15122 -6.20558 A 25 6.37833 180 0 0 41.1333 -10.02647 A 25 6.37833 180 0 0 -0.72382 -14.73669 L -1.84978 -14.45734" />
    <path d="M 41.74949 76.34496 A 25 6.37833 360 0 1 -0.6174 80.93304" />
    <path d="M -140.88542 -15.50975 L -50.97002 6.64462" />
    <path d="M -140.88542 -15.50975 L -140.88542 -30.98024 L -36.58356 -5.28118 L -38.61841 -4.6712 A 25 6.37833 180 0 0 -43.60048 -0.8503 A 25 6.37833 180 0 0 -1.74336 3.85992 L -0.6174 3.58057" />
    <path d="M 34.11638 9.8749 A 25 6.37833 360 0 1 41.74949 14.46298 A 25 6.37833 360 0 1 -0.6174 19.05106 L 34.11638 9.8749 L 36.15122 9.26492 A 25 6.37833 180 0 0 41.1333 5.44402" />
    <path d="M 60.05969 -59.87699 A 25 6.37833 180 0 0 34.77379 -66.2549" />
    <path d="M 26.77379 -65.8948 A 25 6.37833 180 0 0 23.55523 -65.53984 L 22.18425 -65.34436 L 0.48661 -62.0183" />
    <path d="M -7.51339 -60.79197 L -136.39398 -41.0357 A 25 6.37833 180 0 0 -148.51854 -35.56832 L -148.51854 -20.09783" />
    <path d="M -148.51854 -35.56832 A 25 6.37833 180 0 0 -140.88542 -30.98024" />
    <path d="M 34.77379 -59.22 A 4 1.02053 360 1 1 26.77379 -59.22" />
    <path d="M 0.48661 -53.96407 A 4 1.02053 360 1 1 -7.51339 -53.96407" />
    <path d="M -70.03368 -32.24925 L -70.03368 -36.32602" />
    <path d="M -140.88542 -15.50975 A 25 6.37833 360 0 1 -148.51854 -20.09783" />
    <path d="M 50.51943 -39.39394 A 25 6.37833 180 0 0 60.05969 -44.40649" />
    <path d="M 47.93513 -38.93911 L 50.51943 -39.39394 L 50.51943 -54.86443" />
    <path d="M 47.93513 -38.93911 L -44.00868 -24.84493" />
    <path d="M 36.15122 9.26492 L 36.15122 -6.20558" />
    <path d="M 34.11638 9.8749 L 34.11638 -5.5956" />
    <path d="M -1.74336 19.33041 L -1.74336 3.85992" />
    <path d="M -43.60048 14.62019 A 25 6.37833 180 0 0 -1.74336 19.33041 L -0.6174 19.05106" />
    <path d="M 47.93513 -38.93911 L 47.93513 -54.40961" />
    <path d="M 28.71372 -72.66455 A 4 1.02053 360 0 1 34.77379 -71.78977 L 34.77379 -59.22" />
    <path d="M 34.77379 -71.78977 A 4 1.02053 360 1 1 26.77379 -71.78977 L 26.77379 -59.22" />
    <path d="M 26.77379 -71.78977 A 4 1.02053 360 0 1 28.71372 -72.66455" />
    <path d="M -5.57346 -67.40862 A 4 1.02053 360 0 1 0.48661 -66.53384 L 0.48661 -53.96407" />
    <path d="M 0.48661 -66.53384 A 4 1.02053 360 1 1 -7.51339 -66.53384 L -7.51339 -53.96407" />
    <path d="M -7.51339 -66.53384 A 4 1.02053 360 0 1 -5.57346 -67.40862" />
    <path d="M -58.60314 4.76389 L -58.60314 63.93851" />
    <path d="M 41.74949 14.46298 L 41.74949 76.34496" />
    <path d="M 41.1333 -10.02647 L 41.1333 5.44402" />
    <path d="M -43.60048 -0.8503 L -43.60048 14.62019" />
</svg>