<svg version="1.1" xmlns="http://www.w3.org/2000/svg" viewBox="-157.84527075117236 -72.26227148094749 215.30044168772974 160.1359096368509" fill="none" stroke="black" stroke-width="0.6%" vector-effect="non-scaling-stroke">
    <path d="M 19.49307 -1.46271 L -73.31006 -28.06072 A 25 6.68855 0 0 1 -80.03502 -32.62482 A 25 6.68855 0 0 1 -78.27838 -35.08775 L 43.20335 -52.39061 L 45.87652 -52.83111 A 25 6.68855 180 0 0 56.45517 -58.29463 L 56.45517 -42.87789" />
    <path d="M -64.82332 71.05904 L -64.82332 9.39209" />
    <path d="M -71.54828 66.49494 A 25 6.68855 180 0 0 -64.82332 71.05904 L -17.05701 84.74919 L -17.05701 23.08223" />
    <path d="M 26.21803 80.18509 A 25 6.68855 0 0 1 -17.05701 84.74919" />
    <path d="M -150.12031 -15.05461 L -64.82332 9.39209" />
    <path d="M -150.12031 -15.05461 L -150.12031 -30.47135" />
    <path d="M -17.057 7.6655 L -150.12031 -30.47135" />
    <path d="M -17.057 23.08224 L -17.057 7.6655" />
    <path d="M -17.057 23.08224 A 25 6.68855 0 0 1 -17.05701 23.08223" />
    <path d="M 19.49307 -1.46271 A 25 6.68855 0 0 1 26.21803 3.10139 A 25 6.68855 0 0 1 -17.057 7.6655" />
    <path d="M 56.45517 -58.29463 A 25 6.68855 180 0 0 31.04164 -64.98226" />
    <path d="M 23.04164 -64.59303 A 25 6.68855 180 0 0 21.11581 -64.38435 L 19.70699 -64.19864 L -4.26656 -60.78405" />
    <path d="M -12.26656 -59.64459 L -143.59345 -40.93947 A 25 6.68855 180 0 0 -156.84527 -35.03545 L -156.84527 -19.61871" />
    <path d="M -156.84527 -35.03545 A 25 6.68855 180 0 0 -150.12031 -30.47135" />
    <path d="M 31.04164 -57.666 A 4 1.07017 0 0 1 23.04164 -57.666" />
    <path d="M -4.26656 -52.63699 A 4 1.07017 0 0 1 -12.26656 -52.63699" />
    <path d="M -78.27838 -30.16189 L -78.27838 -35.08775" />
    <path d="M -150.12031 -15.05461 A 25 6.68855 0 0 1 -156.84527 -19.61871" />
    <path d="M 45.87652 -37.41437 A 25 6.68855 180 0 0 56.45517 -42.87789" />
    <path d="M 43.20335 -36.97387 L 45.87652 -37.41437 L 45.87652 -52.83111" />
    <path d="M 43.20335 -36.97387 L -55.40477 -22.92894" />
    <path d="M 43.20335 -36.97387 L 43.20335 -52.39061" />
    <path d="M 25.16194 -71.13675 A 4 1.07017 360 0 1 31.04164 -70.1921 L 31.04164 -57.666" />
    <path d="M 31.04164 -70.1921 A 4 1.07017 360 0 1 23.04164 -70.1921 L 23.04164 -57.666" />
    <path d="M 23.04164 -70.1921 A 4 1.07017 360 0 1 25.16194 -71.13675" />
    <path d="M -10.14627 -66.10773 A 4 1.07017 360 0 1 -4.26656 -65.16309 L -4.26656 -52.63699" />
    <path d="M -4.26656 -65.16309 A 4 1.07017 360 0 1 -12.26656 -65.16309 L -12.26656 -52.63699" />
    <path d="M -12.26656 -65.16309 A 4 1.07017 360 0 1 -10.14627 -66.10773" />
    <path d="M -71.54828 7.46467 L -71.54828 66.49494" />
    <path d="M 26.21803 3.10139 L 26.21803 80.18509" />
</svg>