<svg version="1.1" xmlns="http://www.w3.org/2000/svg" viewBox="-157.4696466867194 -46.03353659210263 205.24116187380798 98.23850056091125" fill="none" stroke="black" stroke-width="0.6%" vector-effect="non-scaling-stroke">
    <path d="M 22.12736 -2.84165 L -72.46968 -18.14509 A 25 3.91549 360 0 1 -79.50814 -20.86858 A 25 3.91549 360 0 1 -72.61992 -23.56755 L 35.7775 -35.05002 L 38.2625 -35.35053 A 25 3.91549 180 0 0 46.77151 -38.29335 A 25 3.91549 180 0 0 25.62986 -42.16193" />
    <path d="M -62.48539 42.13618 L -62.48539 10.5311" />
    <path d="M -69.52384 39.4127 A 25 3.91549 180 0 0 -62.48539 42.13618 L -13.79574 50.01296 L -13.79574 18.40787" />
    <path d="M 29.16581 47.28947 A 25 3.91549 360 0 1 -13.79574 50.01296" />
    <path d="M -149.43119 -3.53457 L -62.48539 10.5311" />
    <path d="M -149.43119 -3.53457 L -149.43119 -19.33711" />
    <path d="M -13.79573 2.60533 L -149.43119 -19.33711" />
    <path d="M -13.79573 18.40787 L -13.79573 2.60533" />
    <path d="M -13.79573 18.40787 A 25 3.91549 360 0 1 -13.79574 18.40787" />
    <path d="M 22.12736 -2.84165 A 25 3.91549 0 0 1 29.16581 -0.11816 A 25 3.91549 0 0 1 -13.79573 2.60533" />
    <path d="M 9.62986 -41.71605 A 25 3.91549 180 0 0 9.09344 -41.66801 L 7.76552 -41.53667 L -7.50336 -39.91925" />
    <path d="M -23.50336 -38.22437 L -145.47564 -25.30392 A 25 3.91549 180 0 0 -156.46965 -22.0606 A 25 3.91549 180 0 0 -149.43119 -19.33711" />
    <path d="M 25.62986 -37.85462 A 8 1.25296 360 0 1 9.62986 -37.85462" />
    <path d="M -7.50336 -34.34484 A 8 1.25296 360 0 1 -23.50336 -34.34484" />
    <path d="M -72.61992 -18.16961 L -72.61992 -23.56755" />
    <path d="M -149.43119 -3.53457 A 25 3.91549 360 0 1 -156.46965 -6.25805" />
    <path d="M 38.2625 -19.54799 A 25 3.91549 180 0 0 46.77151 -22.4908" />
    <path d="M 35.7775 -19.24748 L 38.2625 -19.54799 L 38.2625 -35.35053" />
    <path d="M 35.7775 -19.24748 L -33.75471 -11.88197" />
    <path d="M 35.7775 -19.24748 L 35.7775 -35.05002" />
    <path d="M 13.14794 -44.81844 A 8 1.25296 360 0 1 25.62986 -43.78058 L 25.62986 -37.85462" />
    <path d="M 25.62986 -43.78058 A 8 1.25296 360 0 1 9.62986 -43.78058 L 9.62986 -37.85462" />
    <path d="M 9.62986 -43.78058 A 8 1.25296 360 0 1 13.14794 -44.81844" />
    <path d="M -19.98528 -41.30866 A 8 1.25296 360 0 1 -7.50336 -40.27079 L -7.50336 -34.34484" />
    <path d="M -7.50336 -40.27079 A 8 1.25296 360 0 1 -23.50336 -40.27079 L -23.50336 -34.34484" />
    <path d="M -23.50336 -40.27079 A 8 1.25296 360 0 1 -19.98528 -41.30866" />
    <path d="M -13.2624 -10.12209 A 4 0.62648 180 0 0 -11.50336 -10.64102 L -11.50336 -14.23904" />
    <path d="M -19.50336 -10.64102 A 4 0.62648 180 0 0 -13.2624 -10.12209" />
    <path d="M 19.87082 -13.63188 A 4 0.62648 180 0 0 21.62986 -14.15081 L 21.62986 -17.74883" />
    <path d="M 13.62986 -14.15081 A 4 0.62648 180 0 0 19.87082 -13.63188" />
    <path d="M -15.21311 30.50256 L -19.73095 26.06797 L -22.6048 26.50373 L -27.12263 29.47657 L -27.12263 36.88402 L -22.6048 41.31861 L -18.08696 38.34576 L -18.08696 30.93832 L -22.6048 26.50373" />
    <path d="M -19.73095 40.88285 L -15.21311 37.91001 L -18.08696 38.34576" />
    <path d="M -15.21311 37.91001 L -15.21311 30.50256 L -18.08696 30.93832" />
    <path d="M -39.55794 26.56418 L -44.07577 22.12958 L -46.94962 22.56534 L -51.46746 25.53819 L -51.46746 32.94563 L -46.94962 37.38023 L -42.43179 34.40738 L -42.43179 26.99994 L -46.94962 22.56534" />
    <path d="M -44.07577 36.94447 L -39.55794 33.97162 L -42.43179 34.40738" />
    <path d="M -39.55794 33.97162 L -39.55794 26.56418 L -42.43179 26.99994" />
    <path d="M -19.73095 40.88285 L -22.6048 41.31861" />
    <path d="M -44.07577 36.94447 L -46.94962 37.38023" />
    <path d="M -69.52384 9.39245 L -69.52384 39.4127" />
    <path d="M 29.16581 -0.11816 L 29.16581 47.28947" />
    <path d="M 46.77151 -38.29335 L 46.77151 -22.4908" />
    <path d="M -156.46965 -22.0606 L -156.46965 -6.25805" />
    <path d="M -19.50336 -10.64102 L -19.50336 -13.39161" />
    <path d="M 13.62986 -14.15081 L 13.62986 -16.90139" />
</svg>